<?xml version="1.0" encoding="UTF-8"?> <svg xmlns="http://www.w3.org/2000/svg" width="911" height="270" viewBox="0 0 911 270" fill="none"><g clip-path="url(#clip0_246_1264)"><path d="M299.556 84.2686H283.29V150.308H299.556V84.2686Z" fill="white"></path><path d="M375.017 150.308H361.607L328.195 112.065V150.308H311.93V84.2686H325.436L358.847 123.692V84.2686H375.017V150.308Z" fill="white"></path><path d="M419.031 98.462V150.308H402.874V98.462H381.476V84.2686H440.418V98.462H419.031Z" fill="white"></path><path d="M498.288 150.308H446.84V84.2686H497.999V98.2571H463.106V110.679H495.143V123.885H463.106V136.307H498.288V150.308Z" fill="white"></path><path d="M550.387 150.308L530.482 127.632H525.747V150.308H509.493V84.2686H542.904C557.194 84.2686 566.652 92.9316 566.652 105.848C566.652 116.692 559.953 124.475 549.302 126.849L570.002 150.308H550.387ZM541.121 114.029C546.941 114.029 550.688 110.872 550.688 106.053C550.688 101.233 546.941 98.1607 541.121 98.1607H525.747V114.029H541.121Z" fill="white"></path><path d="M636.896 150.308H620.739V124.186H592.943V150.308H576.677V84.2686H592.943V109.993H620.739V84.2686H636.896V150.308Z" fill="white"></path><path d="M716.719 117.379C716.719 136.656 701.249 151.778 681.537 151.778C661.825 151.778 646.343 136.608 646.343 117.379C646.343 98.1488 661.825 82.7866 681.537 82.7866C701.249 82.7866 716.719 98.0644 716.719 117.379ZM700.454 117.379C700.454 106.053 692.285 97.6668 681.537 97.6668C670.79 97.6668 662.609 106.101 662.609 117.379C662.609 128.656 670.79 136.897 681.537 136.897C692.285 136.897 700.454 128.62 700.454 117.379Z" fill="white"></path><path d="M784.662 120.487C784.662 139.416 772.926 151.729 755.383 151.729C737.443 151.729 725.418 139.416 725.418 120.487V84.2686H741.684V120.487C741.684 130.548 747.106 136.753 755.383 136.753C763.179 136.753 768.396 130.548 768.396 120.487V84.2686H784.662V120.487Z" fill="white"></path><path d="M848.447 101.908L832.482 105.162C831.999 102.487 830.567 100.077 828.448 98.3744C826.33 96.6719 823.668 95.7919 820.952 95.8961C815.53 95.8961 812.084 98.8601 812.084 102.595C812.084 105.258 813.289 107.234 817.397 108.114L831.097 111.174C842.531 113.74 849.242 119.945 849.242 130.452C849.242 144.549 836.723 151.838 822.036 151.838C807.156 151.838 794.926 144.742 793.119 131.837L809.879 128.584C811.554 135.38 816.277 138.344 822.892 138.344C829 138.344 832.639 135.585 832.639 131.536C832.639 128.584 831.265 126.717 826.53 125.729L812.734 122.765C803.312 120.488 795.023 115.668 795.023 103.619C795.023 90.8116 805.674 82.8232 821.145 82.8232C835.603 82.8232 845.989 89.9199 848.447 101.945" fill="white"></path><path d="M910.716 150.308H859.268V84.2686H910.427V98.2571H875.533V110.679H907.559V123.885H875.533V136.307H910.716V150.308Z" fill="white"></path><path d="M332.075 239.022H283.29V172.983H299.556V224.829H332.075V239.022Z" fill="white"></path><path d="M366.33 239.022H349.775V218.516L324.244 172.983H341.992L358.258 201.961L374.319 172.983H392.452L366.33 218.323V239.022Z" fill="white"></path><path d="M459.057 214.287C455.996 230.841 442.695 240.505 425.742 240.505C406.127 240.505 390.656 225.42 390.656 205.997C390.656 186.574 406.127 171.501 425.742 171.501C442.008 171.501 455.804 181.14 458.961 196.804L442.996 200.539C440.924 190.984 434.212 186.358 425.742 186.358C415.296 186.358 406.91 194.792 406.91 205.961C406.91 217.13 415.344 225.673 425.742 225.673C434.116 225.673 440.815 220.949 443.092 211.094L459.057 214.287Z" fill="white"></path><path d="M519.71 239.022H468.262V172.983H519.421V186.972H484.528V199.394H516.553V212.612H484.528V225.022H519.71V239.022Z" fill="white"></path><path d="M588.918 209.25C588.918 228.179 577.183 240.504 559.64 240.504C541.699 240.504 529.675 228.179 529.675 209.25V172.983H545.941V209.25C545.941 219.311 551.363 225.516 559.64 225.516C567.424 225.516 572.653 219.311 572.653 209.25V172.983H588.918V209.25Z" fill="white"></path><path d="M677.235 239.022H661.463V206.105L644.209 239.022H634.161L616.811 205.901V239.022H601.051V172.983H617.015L639.185 213.889L661.367 172.983H677.235V239.022Z" fill="white"></path><path d="M182.96 90.0038H207.057C207.84 90.0038 208.591 89.6928 209.145 89.1392C209.698 88.5856 210.009 87.8347 210.009 87.0518V62.9544C210.009 62.1715 209.698 61.4206 209.145 60.867C208.591 60.3135 207.84 60.0024 207.057 60.0024H2.96399C2.17997 60.0024 1.42789 60.3131 0.87238 60.8663C0.31687 61.4196 0.00318705 62.1704 1.02424e-10 62.9544L1.02423e-10 87.0518C0.00318705 87.8359 0.31687 88.5867 0.87238 89.1399C1.42789 89.6932 2.17997 90.0038 2.96399 90.0038H27.0614C27.8444 90.0038 28.5952 90.3148 29.1488 90.8684C29.7024 91.422 30.0134 92.1728 30.0134 92.9557V237.046C30.0134 237.829 29.7024 238.58 29.1488 239.134C28.5952 239.687 27.8444 239.998 27.0614 239.998H2.96399C2.57475 239.998 2.18933 240.075 1.82972 240.224C1.47011 240.373 1.14336 240.591 0.868132 240.867C0.312276 241.422 1.02423e-10 242.176 1.02423e-10 242.962L1.02423e-10 267.06C-3.23748e-06 267.449 0.0767483 267.833 0.22585 268.192C0.374952 268.551 0.593468 268.877 0.868858 269.151C1.14425 269.426 1.47109 269.643 1.83063 269.791C2.19017 269.938 2.57532 270.013 2.96399 270.012H207.045C207.828 270.012 208.579 269.701 209.133 269.147C209.686 268.594 209.997 267.843 209.997 267.06V242.962C209.997 242.178 209.687 241.426 209.133 240.871C208.58 240.315 207.829 240.002 207.045 239.998H182.948C182.165 239.998 181.414 239.687 180.861 239.134C180.307 238.58 179.996 237.829 179.996 237.046V92.9557C179.996 92.1728 180.307 91.422 180.861 90.8684C181.414 90.3148 182.165 90.0038 182.948 90.0038M146.995 239.998H122.897C122.114 239.998 121.363 239.687 120.81 239.134C120.256 238.58 119.945 237.829 119.945 237.046V182.948C119.942 182.167 119.63 181.419 119.076 180.868C118.523 180.317 117.774 180.008 116.993 180.008H92.8957C92.1149 180.008 91.3659 180.317 90.8126 180.868C90.2594 181.419 89.947 182.167 89.9438 182.948V237.046C89.9438 237.829 89.6328 238.58 89.0792 239.134C88.5256 239.687 87.7747 239.998 86.9918 239.998H62.8944C62.1115 239.998 61.3606 239.687 60.807 239.134C60.2534 238.58 59.9424 237.829 59.9424 237.046V92.9557C59.9424 92.1728 60.2534 91.422 60.807 90.8684C61.3606 90.3148 62.1115 90.0038 62.8944 90.0038H86.9918C87.7747 90.0038 88.5256 90.3148 89.0792 90.8684C89.6328 91.422 89.9438 92.1728 89.9438 92.9557V146.994C89.9438 147.778 90.2544 148.53 90.8076 149.086C91.3609 149.641 92.1117 149.955 92.8957 149.958H116.993C117.386 149.965 117.777 149.893 118.142 149.747C118.507 149.601 118.84 149.383 119.12 149.107C119.401 148.831 119.623 148.503 119.775 148.14C119.927 147.777 120.005 147.388 120.005 146.994V92.9557C120.005 92.1728 120.316 91.422 120.87 90.8684C121.424 90.3148 122.174 90.0038 122.957 90.0038H147.055C147.839 90.0038 148.591 90.3144 149.146 90.8676C149.702 91.4209 150.016 92.1717 150.019 92.9557V237.046C150.016 237.831 149.702 238.581 149.146 239.135C148.591 239.688 147.839 239.998 147.055 239.998" fill="#FF9F2C"></path><path d="M207.045 0H2.95194C1.32163 0 0 1.32163 0 2.95194V27.0494C0 28.6797 1.32163 30.0013 2.95194 30.0013H207.045C208.676 30.0013 209.997 28.6797 209.997 27.0494V2.95194C209.997 1.32163 208.676 0 207.045 0Z" fill="#FF9F2C"></path></g><defs><clipPath id="clip0_246_1264"><rect width="910.715" height="270" fill="white"></rect></clipPath></defs></svg> 